<svg width="50" height="50" viewBox="0 0 50 50" fill="none" xmlns="http://www.w3.org/2000/svg">
<rect width="50" height="50" rx="25" fill="#023A51"/>
<path d="M32.9166 24.0834V18.4167C32.9166 17.1667 32.3833 16.6667 31.0583 16.6667H27.6916C26.3666 16.6667 25.8333 17.1667 25.8333 18.4167V24.0834C25.8333 25.3334 26.3666 25.8334 27.6916 25.8334H31.0583C32.3833 25.8334 32.9166 25.3334 32.9166 24.0834Z" fill="white"/>
<path d="M24.1666 25.9167V31.5834C24.1666 32.8334 23.6333 33.3334 22.3083 33.3334H18.9416C17.6166 33.3334 17.0833 32.8334 17.0833 31.5834V25.9167C17.0833 24.6667 17.6166 24.1667 18.9416 24.1667H22.3083C23.6333 24.1667 24.1666 24.6667 24.1666 25.9167Z" fill="white"/>
<path d="M32.9166 31.5834V29.25C32.9166 28 32.3833 27.5 31.0583 27.5H27.6916C26.3666 27.5 25.8333 28 25.8333 29.25V31.5834C25.8333 32.8334 26.3666 33.3334 27.6916 33.3334H31.0583C32.3833 33.3334 32.9166 32.8334 32.9166 31.5834Z" fill="white"/>
<path d="M24.1666 20.75V18.4167C24.1666 17.1667 23.6333 16.6667 22.3083 16.6667H18.9416C17.6166 16.6667 17.0833 17.1667 17.0833 18.4167V20.75C17.0833 22 17.6166 22.5 18.9416 22.5H22.3083C23.6333 22.5 24.1666 22 24.1666 20.75Z" fill="white"/>
</svg>
